<svg xmlns="http://www.w3.org/2000/svg" viewBox="0 0 19.154 18.76">
  <defs>
    <style>
      .cls-1 {
        fill: #fff;
      }
    </style>
  </defs>
  <path id="link-broken" class="cls-1" d="M19.134,15.116a3.886,3.886,0,0,0-1.209-2.335,4.487,4.487,0,0,0-5.317-.732L10.3,13.3c-.536.295-1.082.573-1.6.9a.938.938,0,0,0-.431,1.007,1,1,0,0,0,.787.854,1.122,1.122,0,0,0,.86-.153c1.18-.642,2.352-1.3,3.543-1.915a2.327,2.327,0,0,1,2.861.571,1.532,1.532,0,0,1,.477,1.184,2.638,2.638,0,0,1-1.383,2.183c-.768.4-1.528.824-2.291,1.239-.433.236-.871.465-1.291.722a1,1,0,0,0-.448,1.053,1.047,1.047,0,0,0,1.59.7q1.87-1.008,3.737-2.032a4.475,4.475,0,0,0,2.245-2.846c.092-.331.134-.672.211-1.006V15.2A.342.342,0,0,1,19.134,15.116Zm-7.99,7.28a1.044,1.044,0,0,0-1.268.308q-1.322,1.448-2.643,2.9a2.356,2.356,0,0,1-2.8.6,1.6,1.6,0,0,1-1.017-1.013,2.6,2.6,0,0,1,.575-2.568C4.57,22,5.139,21.368,5.712,20.74c.349-.383.712-.757,1.036-1.163A1.029,1.029,0,0,0,6.476,18.1a1.057,1.057,0,0,0-1.4.222Q3.635,19.889,2.2,21.466a4.515,4.515,0,0,0-.971,1.651A5.059,5.059,0,0,0,1.1,25.543,3.125,3.125,0,0,0,1.7,27a4.373,4.373,0,0,0,3.442,1.745,4.342,4.342,0,0,0,3.231-1.3c.984-1.023,1.925-2.088,2.882-3.133a4.415,4.415,0,0,0,.316-.37A1.039,1.039,0,0,0,11.144,22.4ZM6.183,21.3a1.264,1.264,0,1,0,1.86,1.708q2.364-2.525,4.715-5.062a1.273,1.273,0,0,0-.893-2.17,1.388,1.388,0,0,0-1.011.494l-3.6,3.875c-.358.385-.72.766-1.071,1.155ZM5.045,17v0c.1,0,.2,0,.3,0a.452.452,0,0,0,.406-.64.6.6,0,0,0-.312-.283q-2.16-1.057-4.317-2.122c-.347-.17-.383-.163-.554.18-.023.044-.04.092-.059.138a6.85,6.85,0,0,0-.421,1.452,2.674,2.674,0,0,0-.065.762c.013.14.065.211.218.218.431.017.86.05,1.291.075q1.755.109,3.515.216Zm1.379-3.551c.088.4.172.806.266,1.207a.4.4,0,0,0,.416.356.407.407,0,0,0,.391-.362c.006-.025.013-.048.017-.073.259-1.406.513-2.812.78-4.217.034-.186-.034-.255-.19-.291a4.264,4.264,0,0,0-.986-.08,4.49,4.49,0,0,0-1.153.124c-.216.056-.239.105-.193.316Q6.1,11.939,6.424,13.448ZM1.935,11.975c.8.559,1.6,1.128,2.4,1.691a5.977,5.977,0,0,0,.544.364.278.278,0,0,0,.431-.237.511.511,0,0,0-.105-.232c-.642-.931-1.283-1.858-1.921-2.791-.079-.115-.155-.147-.28-.082a3.262,3.262,0,0,0-1.134.984c-.094.128-.071.211.063.3Z" transform="translate(-0.014 -9.987)"/>
</svg>
