<svg xmlns="http://www.w3.org/2000/svg" viewBox="0 0 41.211 60">
  <defs>
    <style>
      .cls-1 {
        fill: #fff;
      }
    </style>
  </defs>
  <path id="Path_25" data-name="Path 25" class="cls-1" d="M177.711,56.566V14.095a5.14,5.14,0,0,0-1.514-3.648l-8.926-8.933A5.152,5.152,0,0,0,163.623,0H139.941A3.442,3.442,0,0,0,136.5,3.441V56.559A3.442,3.442,0,0,0,139.941,60H174.27A3.432,3.432,0,0,0,177.711,56.566Zm-8.3-32.2a3.442,3.442,0,0,1,3.441,3.441V32.1h-7.866V24.37Zm3.441,20.392H141.359V35.54h31.493v9.222ZM161.614,32.1H152.6V24.37h9.016Zm-20.255-4.288A3.442,3.442,0,0,1,144.8,24.37h4.425V32.1h-7.866Zm0,24.095V48.2h8v7.144H144.8A3.442,3.442,0,0,1,141.359,51.906Zm11.1-3.7h9.291v7.144H152.46Zm20.392,3.7a3.442,3.442,0,0,1-3.441,3.441h-4.563V48.2h8Z" transform="translate(-136.5 0)"/>
</svg>
