<svg xmlns="http://www.w3.org/2000/svg" viewBox="0 0 60.025 60">
  <defs>
    <style>
      .cls-1 {
        fill: #fff;
      }
    </style>
  </defs>
  <path id="Path_26" data-name="Path 26" class="cls-1" d="M4.318-46.286H-53.338l-1.172,10.48a2.2,2.2,0,0,0,.536,1.674,2.23,2.23,0,0,0,1.607.7H3.347a2.23,2.23,0,0,0,1.607-.7,2.2,2.2,0,0,0,.536-1.674ZM1.2-74.377A2.169,2.169,0,0,0-.939-76.286H-9.51V-72A4.273,4.273,0,0,1-13.8-67.714,4.273,4.273,0,0,1-18.082-72v-4.286H-30.939V-72a4.273,4.273,0,0,1-4.286,4.286A4.273,4.273,0,0,1-39.51-72v-4.286h-8.571a2.169,2.169,0,0,0-2.143,1.908L-53.1-48.429H4.083Zm-12.857-6.194A12.86,12.86,0,0,0-24.51-93.429,12.86,12.86,0,0,0-37.368-80.571V-72a2.158,2.158,0,0,0,2.143,2.143A2.158,2.158,0,0,0-33.082-72v-8.571a8.588,8.588,0,0,1,8.571-8.571,8.588,8.588,0,0,1,8.571,8.571V-72A2.158,2.158,0,0,0-13.8-69.857,2.158,2.158,0,0,0-11.653-72Z" transform="translate(54.523 93.429)"/>
</svg>
