<svg xmlns="http://www.w3.org/2000/svg" viewBox="0 0 36 60">
  <defs>
    <style>
      .cls-1 {
        fill: #fff;
      }
    </style>
  </defs>
  <path id="Path_22" data-name="Path 22" class="cls-1" d="M21.75-31.714A3.761,3.761,0,0,1,18-27.964a3.761,3.761,0,0,1-3.75-3.75A3.761,3.761,0,0,1,18-35.464,3.761,3.761,0,0,1,21.75-31.714Zm9.75-7.5a1.542,1.542,0,0,1-1.5,1.5H6a1.542,1.542,0,0,1-1.5-1.5V-80.269a1.542,1.542,0,0,1,1.5-1.5H30a1.542,1.542,0,0,1,1.5,1.5Zm4.5-40.5a6.042,6.042,0,0,0-6-6H6a6.042,6.042,0,0,0-6,6v48a6.042,6.042,0,0,0,6,6H30a6.042,6.042,0,0,0,6-6Z" transform="translate(0 85.715)"/>
</svg>
